<svg width="13" height="16" viewBox="0 0 13 16" fill="none" xmlns="http://www.w3.org/2000/svg">
<path d="M6.66634 7.33333L10.9197 10.9133L10.333 11.0333L9.90634 11.1133C9.48634 11.2 9.24634 11.6667 9.43301 12.0467L9.61301 12.4333L10.5197 14.3933L9.57301 14.8333L8.66634 12.88L8.49301 12.4933C8.31301 12.1 7.81301 11.98 7.47967 12.2533L7.13967 12.52L6.66634 12.9V7.33333ZM6.17301 5.79333C6.03863 5.79333 5.90976 5.84671 5.81474 5.94173C5.71972 6.03675 5.66634 6.16562 5.66634 6.3V13.9333C5.66634 14.2133 5.89301 14.44 6.17301 14.44C6.29967 14.44 6.40634 14.4 6.49301 14.3333L7.76634 13.3L8.87301 15.7133C8.95967 15.8933 9.13968 16 9.33301 16C9.40634 16 9.47967 16 9.55301 15.9467L11.393 15.0933C11.6463 14.9733 11.7663 14.6667 11.633 14.42L10.5197 12L12.1263 11.7C12.233 11.6667 12.333 11.62 12.413 11.5267C12.593 11.3133 12.5663 11 12.333 10.8067L6.50634 5.90667L6.49967 5.91333C6.41301 5.84 6.29967 5.79333 6.17301 5.79333ZM8.99967 6.66667V5.33333H12.333V6.66667H8.99967ZM8.21967 3.17333L10.1063 1.28667L11.0463 2.22667L9.15967 4.11333L8.21967 3.17333ZM5.66634 0H6.99967V3.33333H5.66634V0ZM1.61967 9.77333L3.50634 7.88667L4.44634 8.82667L2.55967 10.7133L1.61967 9.77333ZM1.61967 2.22667L2.55967 1.28667L4.44634 3.17333L3.50634 4.11333L1.61967 2.22667ZM3.66634 6.66667H0.333008V5.33333H3.66634V6.66667Z" fill="black"/>
</svg>
