<svg width="46" height="39" viewBox="0 0 46 39" fill="none" xmlns="http://www.w3.org/2000/svg">
<rect width="46" height="39" rx="8" fill="black" fill-opacity="0.91"/>
<path d="M14.9091 25.1705C14.0152 25.1705 13.2462 24.9811 12.6023 24.6023C11.9621 24.2197 11.4697 23.6894 11.125 23.0114C10.7841 22.3333 10.6136 21.553 10.6136 20.6705C10.6136 19.7765 10.786 18.9924 11.1307 18.3182C11.4792 17.6402 11.9735 17.1117 12.6136 16.733C13.2538 16.3504 14.0152 16.1591 14.8977 16.1591C15.6591 16.1591 16.3258 16.2973 16.8977 16.5739C17.4697 16.8504 17.9223 17.2386 18.2557 17.7386C18.589 18.2386 18.7727 18.8258 18.8068 19.5H16.5227C16.4583 19.0644 16.2879 18.714 16.0114 18.4489C15.7386 18.1799 15.3807 18.0455 14.9375 18.0455C14.5625 18.0455 14.2348 18.1477 13.9545 18.3523C13.678 18.553 13.4621 18.8466 13.3068 19.233C13.1515 19.6193 13.0739 20.0871 13.0739 20.6364C13.0739 21.1932 13.1496 21.6667 13.3011 22.0568C13.4564 22.447 13.6742 22.7443 13.9545 22.9489C14.2348 23.1534 14.5625 23.2557 14.9375 23.2557C15.214 23.2557 15.4621 23.1989 15.6818 23.0852C15.9053 22.9716 16.089 22.8068 16.233 22.5909C16.3807 22.3712 16.4773 22.108 16.5227 21.8011H18.8068C18.7689 22.4678 18.5871 23.0549 18.2614 23.5625C17.9394 24.0663 17.4943 24.4602 16.9261 24.7443C16.358 25.0284 15.6856 25.1705 14.9091 25.1705ZM20.3565 25V16.2727H22.7031V17.7955H22.794C22.9531 17.2538 23.2202 16.8447 23.5952 16.5682C23.9702 16.2879 24.402 16.1477 24.8906 16.1477C25.0118 16.1477 25.1425 16.1553 25.2827 16.1705C25.4228 16.1856 25.5459 16.2064 25.652 16.233V18.3807C25.5384 18.3466 25.3812 18.3163 25.1804 18.2898C24.9796 18.2633 24.7959 18.25 24.6293 18.25C24.2732 18.25 23.955 18.3277 23.6747 18.483C23.3982 18.6345 23.1785 18.8466 23.0156 19.1193C22.8565 19.392 22.777 19.7064 22.777 20.0625V25H20.3565ZM30.4403 25.1705C29.5578 25.1705 28.7945 24.983 28.1506 24.608C27.5104 24.2292 27.0161 23.7027 26.6676 23.0284C26.3191 22.3504 26.1449 21.5644 26.1449 20.6705C26.1449 19.7689 26.3191 18.9811 26.6676 18.3068C27.0161 17.6288 27.5104 17.1023 28.1506 16.7273C28.7945 16.3485 29.5578 16.1591 30.4403 16.1591C31.3229 16.1591 32.0843 16.3485 32.7244 16.7273C33.3684 17.1023 33.8646 17.6288 34.2131 18.3068C34.5616 18.9811 34.7358 19.7689 34.7358 20.6705C34.7358 21.5644 34.5616 22.3504 34.2131 23.0284C33.8646 23.7027 33.3684 24.2292 32.7244 24.608C32.0843 24.983 31.3229 25.1705 30.4403 25.1705ZM30.4517 23.2955C30.8532 23.2955 31.1884 23.1818 31.4574 22.9545C31.7263 22.7235 31.929 22.4091 32.0653 22.0114C32.2055 21.6136 32.2756 21.161 32.2756 20.6534C32.2756 20.1458 32.2055 19.6932 32.0653 19.2955C31.929 18.8977 31.7263 18.5833 31.4574 18.3523C31.1884 18.1212 30.8532 18.0057 30.4517 18.0057C30.0464 18.0057 29.7055 18.1212 29.429 18.3523C29.1563 18.5833 28.9498 18.8977 28.8097 19.2955C28.6733 19.6932 28.6051 20.1458 28.6051 20.6534C28.6051 21.161 28.6733 21.6136 28.8097 22.0114C28.9498 22.4091 29.1563 22.7235 29.429 22.9545C29.7055 23.1818 30.0464 23.2955 30.4517 23.2955Z" fill="white" fill-opacity="0.7"/>
</svg>
